<svg version="1.1" id="Layer_1" xmlns="http://www.w3.org/2000/svg" xmlns:xlink="http://www.w3.org/1999/xlink" x="0px" y="0px"
	 width="100%" viewBox="0 0 1280 861" enable-background="new 0 0 1280 861" xml:space="preserve">
<path fill="#000001" opacity="1.000000" stroke="none" 
	d="
M1.000000,309.000000 
	C1.000000,206.000000 1.000000,103.500000 1.000000,1.000000 
	C427.666656,1.000000 854.333313,1.000000 1281.000000,1.000000 
	C1281.000000,288.000000 1281.000000,575.000000 1281.000000,862.000000 
	C854.333313,862.000000 427.666656,862.000000 1.000000,862.000000 
	C1.000000,677.833313 1.000000,493.666656 1.000000,309.000000 
M645.746338,420.811981 
	C640.192932,427.901093 634.639587,434.990173 628.164917,441.838470 
	C566.108337,441.838470 504.051727,441.838470 442.142395,441.838470 
	C442.142395,575.064270 442.142395,707.456238 442.142395,839.934448 
	C574.910400,839.934448 707.302124,839.934448 839.834473,839.934448 
	C839.834473,707.125244 839.834473,574.615662 839.834473,441.766388 
	C837.457825,441.766388 835.478455,441.766388 833.499084,441.766388 
	C796.505920,441.766357 759.512756,441.772888 722.519592,441.748322 
	C720.538452,441.747009 718.557434,441.484436 717.153564,440.813354 
	C725.094910,433.845215 733.036194,426.877075 741.860352,420.258575 
	C774.460449,420.258575 807.060547,420.258575 839.843872,420.258575 
	C839.843872,287.287964 839.843872,154.802032 839.843872,22.265263 
	C707.066162,22.265263 574.677979,22.265263 442.165375,22.265263 
	C442.165375,155.026733 442.165375,287.524414 442.165375,420.380768 
	C444.709747,420.380768 446.857239,420.380768 449.004761,420.380768 
	C512.651855,420.380798 576.299011,420.382477 639.946106,420.372986 
	C641.941772,420.372681 643.937439,420.256805 645.746338,420.811981 
M1259.968994,419.072388 
	C1259.968994,286.853546 1259.968994,154.634720 1259.968994,22.369732 
	C1126.924561,22.369732 994.423828,22.369732 861.618408,22.369732 
	C861.618408,24.727066 861.618408,26.716707 861.618408,28.706347 
	C861.618408,157.153122 861.617554,285.599884 861.626953,414.046661 
	C861.627136,415.874420 861.755493,417.702179 862.112427,420.423218 
	C863.739380,420.614746 865.366333,420.973694 866.993347,420.973999 
	C996.431091,420.999969 1125.868896,421.001221 1255.306641,420.956512 
	C1256.815186,420.955994 1258.323486,420.333252 1259.968994,419.072388 
M420.329559,418.663055 
	C420.345520,287.711273 420.362213,156.759491 420.365021,25.807701 
	C420.365051,24.691185 420.177734,23.574663 420.068848,22.357279 
	C287.274536,22.357279 154.776016,22.357279 22.001347,22.357279 
	C22.001347,24.359488 22.001347,26.007084 22.001347,27.654678 
	C22.001352,156.774170 22.000719,285.893677 22.008255,415.013153 
	C22.008352,416.675751 22.112459,418.338348 22.563761,420.746277 
	C24.555191,420.830200 26.546600,420.986847 28.538055,420.987427 
	C75.026787,421.001190 121.515518,420.998077 168.004257,420.998077 
	C250.151016,420.998047 332.297760,421.007935 414.444458,420.936646 
	C416.355377,420.934998 418.265503,420.019287 420.329559,418.663055 
z"/>
<path fill="#B77C72" opacity="1.000000" stroke="none" 
	d="
M22.168018,420.000946 
	C22.112459,418.338348 22.008352,416.675751 22.008255,415.013153 
	C22.000719,285.893677 22.001352,156.774170 22.001347,27.654678 
	C22.001347,26.007084 22.001347,24.359488 22.001347,22.357279 
	C154.776016,22.357279 287.274536,22.357279 420.068848,22.357279 
	C420.177734,23.574663 420.365051,24.691185 420.365021,25.807701 
	C420.362213,156.759491 420.345520,287.711273 419.794037,419.256714 
	C416.763092,419.900238 414.267700,419.993652 411.772278,419.993774 
	C281.904205,420.001190 152.036102,420.000641 22.168018,420.000946 
z"/>
<path fill="#B77C72" opacity="1.000000" stroke="none" 
	d="
M861.824097,419.529938 
	C861.755493,417.702179 861.627136,415.874420 861.626953,414.046661 
	C861.617554,285.599884 861.618408,157.153122 861.618408,28.706347 
	C861.618408,26.716707 861.618408,24.727066 861.618408,22.369732 
	C994.423828,22.369732 1126.924561,22.369732 1259.968994,22.369732 
	C1259.968994,154.634720 1259.968994,286.853546 1259.442627,419.536316 
	C1129.029907,420.000153 999.143494,420.002686 869.257080,419.980408 
	C866.779419,419.979980 864.301697,419.686615 861.824097,419.529938 
z"/>
<path fill="#B77C72" opacity="1.000000" stroke="none" 
	d="
M716.576355,441.343475 
	C718.557434,441.484436 720.538452,441.747009 722.519592,441.748322 
	C759.512756,441.772888 796.505920,441.766357 833.499084,441.766388 
	C835.478455,441.766388 837.457825,441.766388 839.834473,441.766388 
	C839.834473,574.615662 839.834473,707.125244 839.834473,839.934448 
	C707.302124,839.934448 574.910400,839.934448 442.142395,839.934448 
	C442.142395,707.456238 442.142395,575.064270 442.142395,441.838470 
	C504.051727,441.838470 566.108337,441.838470 628.580688,442.305756 
	C605.575256,478.589050 602.171692,518.616699 604.089355,560.173340 
	C626.111023,560.173340 647.854126,560.173340 671.039001,560.173340 
	C671.039001,553.055847 670.720337,546.086914 671.100220,539.156189 
	C672.141602,520.157959 674.133179,501.383484 682.351379,483.741547 
	C690.289612,466.700623 703.192444,453.877502 716.576355,441.343475 
M673.344116,699.002441 
	C674.791138,698.901855 676.238220,698.801208 677.914124,698.684631 
	C677.914124,672.622498 677.914124,646.883911 677.914124,620.942932 
	C651.855042,620.942932 626.028137,620.942932 600.193115,620.942932 
	C600.193115,647.127930 600.193115,672.842712 600.193115,699.002747 
	C624.492493,699.002747 648.431824,699.002747 673.344116,699.002441 
z"/>
<path fill="#B77C72" opacity="1.000000" stroke="none" 
	d="
M645.933105,420.194794 
	C643.937439,420.256805 641.941772,420.372681 639.946106,420.372986 
	C576.299011,420.382477 512.651855,420.380798 449.004761,420.380768 
	C446.857239,420.380768 444.709747,420.380768 442.165375,420.380768 
	C442.165375,287.524414 442.165375,155.026733 442.165375,22.265263 
	C574.677979,22.265263 707.066162,22.265263 839.843872,22.265263 
	C839.843872,154.802032 839.843872,287.287964 839.843872,420.258575 
	C807.060547,420.258575 774.460449,420.258575 741.500549,419.760193 
	C752.344788,408.087280 763.820129,397.169556 774.693542,385.682037 
	C794.306702,364.961121 809.984436,341.886536 816.227112,313.384613 
	C829.759827,251.598221 806.000427,195.981186 755.513000,160.041245 
	C730.395447,142.161072 701.923462,132.803589 671.434814,129.500122 
	C632.338013,125.263985 593.872314,127.195282 557.065857,142.716125 
	C529.854004,154.191055 507.648804,172.030045 490.588165,196.181015 
	C474.512085,218.938187 465.728760,244.649643 460.300079,271.671326 
	C459.140381,277.443939 458.558960,283.332733 457.657623,289.536224 
	C481.724457,292.416046 504.943176,295.194397 528.094666,297.964691 
	C530.407593,287.956360 532.250244,278.478577 534.815247,269.200439 
	C539.973572,250.542206 547.605774,232.822617 560.802490,218.495285 
	C591.540222,185.124207 630.107971,178.297485 672.455750,188.633133 
	C698.478088,194.984283 718.309387,211.224991 733.093750,233.232086 
	C748.806519,256.620941 752.999084,282.255157 745.597229,309.588623 
	C741.176941,325.911530 731.164856,338.927216 719.458679,350.374329 
	C695.296326,374.001831 670.480286,396.960815 645.933105,420.194794 
z"/>
<path fill="#FFFEFE" opacity="1.000000" stroke="none" 
	d="
M645.839722,420.503387 
	C670.480286,396.960815 695.296326,374.001831 719.458679,350.374329 
	C731.164856,338.927216 741.176941,325.911530 745.597229,309.588623 
	C752.999084,282.255157 748.806519,256.620941 733.093750,233.232086 
	C718.309387,211.224991 698.478088,194.984283 672.455750,188.633133 
	C630.107971,178.297485 591.540222,185.124207 560.802490,218.495285 
	C547.605774,232.822617 539.973572,250.542206 534.815247,269.200439 
	C532.250244,278.478577 530.407593,287.956360 528.094666,297.964691 
	C504.943176,295.194397 481.724457,292.416046 457.657623,289.536224 
	C458.558960,283.332733 459.140381,277.443939 460.300079,271.671326 
	C465.728760,244.649643 474.512085,218.938187 490.588165,196.181015 
	C507.648804,172.030045 529.854004,154.191055 557.065857,142.716125 
	C593.872314,127.195282 632.338013,125.263985 671.434814,129.500122 
	C701.923462,132.803589 730.395447,142.161072 755.513000,160.041245 
	C806.000427,195.981186 829.759827,251.598221 816.227112,313.384613 
	C809.984436,341.886536 794.306702,364.961121 774.693542,385.682037 
	C763.820129,397.169556 752.344788,408.087280 741.059082,419.585388 
	C733.036194,426.877075 725.094910,433.845215 716.864990,441.078430 
	C703.192444,453.877502 690.289612,466.700623 682.351379,483.741547 
	C674.133179,501.383484 672.141602,520.157959 671.100220,539.156189 
	C670.720337,546.086914 671.039001,553.055847 671.039001,560.173340 
	C647.854126,560.173340 626.111023,560.173340 604.089355,560.173340 
	C602.171692,518.616699 605.575256,478.589050 629.041382,442.426147 
	C634.639587,434.990173 640.192932,427.901093 645.839722,420.503387 
z"/>
<path fill="#7300AD" opacity="1.000000" stroke="none" 
	d="
M22.365891,420.373596 
	C152.036102,420.000641 281.904205,420.001190 411.772278,419.993774 
	C414.267700,419.993652 416.763092,419.900238 419.717255,419.690155 
	C418.265503,420.019287 416.355377,420.934998 414.444458,420.936646 
	C332.297760,421.007935 250.151016,420.998047 168.004257,420.998077 
	C121.515518,420.998077 75.026787,421.001190 28.538055,420.987427 
	C26.546600,420.986847 24.555191,420.830200 22.365891,420.373596 
z"/>
<path fill="#7300AD" opacity="1.000000" stroke="none" 
	d="
M861.968262,419.976562 
	C864.301697,419.686615 866.779419,419.979980 869.257080,419.980408 
	C999.143494,420.002686 1129.029907,420.000153 1259.374023,420.000610 
	C1258.323486,420.333252 1256.815186,420.955994 1255.306641,420.956512 
	C1125.868896,421.001221 996.431091,420.999969 866.993347,420.973999 
	C865.366333,420.973694 863.739380,420.614746 861.968262,419.976562 
z"/>
<path fill="#FFFEFE" opacity="1.000000" stroke="none" 
	d="
M672.857666,699.002563 
	C648.431824,699.002747 624.492493,699.002747 600.193115,699.002747 
	C600.193115,672.842712 600.193115,647.127930 600.193115,620.942932 
	C626.028137,620.942932 651.855042,620.942932 677.914124,620.942932 
	C677.914124,646.883911 677.914124,672.622498 677.914124,698.684631 
	C676.238220,698.801208 674.791138,698.901855 672.857666,699.002563 
z"/>
</svg>